<?xml version="1.0" standalone="no"?>
<!DOCTYPE svg PUBLIC "-//W3C//DTD SVG 20010904//EN"
 "http://www.w3.org/TR/2001/REC-SVG-20010904/DTD/svg10.dtd">
<svg version="1.0" xmlns="http://www.w3.org/2000/svg"
 width="160.000000pt" height="160.000000pt" viewBox="0 0 160.000000 160.000000"
 preserveAspectRatio="xMidYMid meet">
<metadata>
Created by potrace 1.11, written by Peter Selinger 2001-2013
</metadata>
<g transform="translate(0.000000,160.000000) scale(0.100000,-0.100000)"
fill="#000000" stroke="none">
<path d="M785 1538 c-10 -88 -5 -404 7 -423 3 -6 9 -32 12 -60 3 -27 8 -63 11
-80 3 -16 7 -44 10 -61 4 -23 1 -33 -11 -38 -41 -16 -63 43 -62 168 l0 96 -48
45 c-27 25 -55 45 -61 45 -7 0 -13 5 -13 10 0 6 -4 10 -10 10 -5 0 -37 13 -71
30 -57 27 -87 31 -74 9 4 -5 -6 -9 -22 -10 -74 -2 -121 -41 -130 -107 -3 -23
-10 -42 -14 -42 -19 0 -7 -42 32 -117 88 -167 97 -173 270 -162 42 3 114 -29
114 -51 0 -11 -11 -15 -40 -15 -22 -1 -44 1 -49 4 -5 2 -23 6 -40 7 -32 3 -55
6 -116 19 -38 8 -413 10 -444 3 -37 -9 -27 -24 11 -20 81 8 179 7 203 -1 14
-6 34 -9 45 -9 14 1 21 -5 22 -18 1 -14 -5 -20 -21 -20 -27 0 -82 -54 -96 -97
-9 -24 -8 -39 3 -65 12 -29 12 -36 1 -44 -20 -13 -9 -24 92 -91 155 -102 158
-103 293 -44 66 29 89 32 163 16 54 -10 39 -21 -26 -19 -31 1 -56 -2 -56 -6 0
-4 -21 -10 -47 -14 -29 -3 -101 -32 -181 -73 -154 -77 -156 -89 -12 -87 90 2
138 13 263 63 75 30 117 34 167 14 8 -3 42 -7 75 -10 84 -5 160 -34 195 -73 3
-3 30 -22 60 -43 31 -21 83 -62 115 -92 33 -30 65 -54 71 -55 6 0 18 16 28 36
l17 37 -48 44 c-40 37 -42 41 -13 22 19 -13 54 -43 78 -68 l43 -44 32 31 31
31 -28 25 -29 24 34 17 c19 10 37 22 41 28 3 6 -22 42 -58 81 -35 39 -74 91
-86 116 -13 25 -38 64 -57 88 -36 46 -50 92 -51 159 0 23 -7 72 -16 109 l-15
67 30 76 c44 110 62 187 62 262 0 68 -19 138 -28 109 -3 -8 -29 -62 -58 -120
-63 -126 -86 -199 -89 -285 -2 -77 -11 -90 -25 -38 -19 68 -13 119 21 186 51
100 46 131 -36 257 -38 58 -74 108 -80 112 -14 10 -32 4 -29 -10 4 -17 -56 21
-61 38 -3 11 -4 11 -5 -2 -1 -10 -9 -18 -20 -18 -10 0 -35 -11 -56 -26 l-37
-25 4 31 c3 17 1 33 -4 36 -4 3 -8 -15 -8 -40 0 -54 -16 -99 -32 -94 -16 6
-20 41 -20 186 0 126 -12 162 -23 70z m217 -660 c34 -19 85 -68 71 -68 -6 0
-13 3 -15 8 -1 4 -21 16 -42 27 -34 17 -60 45 -42 45 4 0 16 -6 28 -12z m-242
-296 c13 -26 29 -50 34 -54 6 -4 7 -10 3 -14 -13 -13 -87 79 -87 107 0 30 23
12 50 -39z m435 -15 c10 -28 24 -67 33 -85 17 -37 10 -51 -14 -32 -21 18 -64
104 -64 129 0 28 11 52 20 46 5 -3 16 -29 25 -58z m-110 -141 c47 -22 99 -66
78 -66 -5 0 -27 9 -49 19 -22 11 -54 23 -70 26 -57 13 -94 27 -90 33 10 17 84
10 131 -12z m383 -221 c12 -14 18 -25 13 -25 -5 0 -16 11 -25 25 -9 14 -15 25
-13 25 2 0 13 -11 25 -25z"/>
<path d="M157 739 c7 -7 15 -10 18 -7 3 3 -2 9 -12 12 -14 6 -15 5 -6 -5z"/>
<path d="M190 740 c0 -5 5 -10 10 -10 6 0 10 5 10 10 0 6 -4 10 -10 10 -5 0
-10 -4 -10 -10z"/>
<path d="M226 742 c-3 -5 1 -9 9 -9 8 0 15 4 15 9 0 4 -4 8 -9 8 -6 0 -12 -4
-15 -8z"/>
</g>
</svg>
