<?xml version="1.0" encoding="utf-8"?>
<!-- Generator: Adobe Illustrator 19.2.0, SVG Export Plug-In . SVG Version: 6.00 Build 0)  -->
<svg version="1.1" id="Layer_1" xmlns="http://www.w3.org/2000/svg" xmlns:xlink="http://www.w3.org/1999/xlink" x="0px" y="0px"
	 viewBox="0 0 1000 721.7" style="enable-background:new 0 0 1000 721.7;" xml:space="preserve">
<style type="text/css">
	.st0{fill:#9013FE;}
	.st1{fill:#FFFFFF;}
	.st2{font-family:'DINAlternate-Bold';}
	.st3{font-size:61.49px;}
	.st4{letter-spacing:-5;}
	.st5{fill:#F5C634;}
</style>
<title>wanderwellbanner</title>
<g id="Layer_2">
	<rect class="st0" width="1000" height="721"/>
</g>
<ellipse class="st1" cx="258.8" cy="319.7" rx="104.1" ry="86"/>
<path class="st1" d="M232.6,459.2l34.6-125.4l67.6,44.9L232.6,459.2z"/>
<ellipse class="st0" cx="237.3" cy="297.4" rx="8.7" ry="23.1"/>
<ellipse class="st0" cx="280.5" cy="297.4" rx="8.7" ry="23.1"/>
<text transform="matrix(1 0 0 1 149.81 521.28)" class="st1 st2 st3">Real</text>
<text transform="matrix(1 0 0 1 264.64 521.28)" class="st1 st2 st3 st4">T</text>
<text transform="matrix(1 0 0 1 289.23 521.28)" class="st1 st2 st3">alk</text>
<g id="hZvKq0.tif">
	
		<image style="overflow:visible;enable-background:new    ;" width="611" height="1215" id="Layer_0" xlink:href="9DA5877EE7C17D8C.png"  transform="matrix(0.7 0 0 0.7017 527.98 29.62)">
	</image>
</g>
<g id="okqtQq">
	
		<image style="overflow:visible;enable-background:new    ;" width="754" height="1301" id="okqtQq-2" xlink:href="9DA5877EE7C17D8D.png"  transform="matrix(0.4874 0 0 0.4885 556.99 93.52)">
	</image>
</g>
<g id="_2rA5er.tif">
	
		<image style="overflow:visible;enable-background:new    ;" width="2290" height="1310" id="Layer_0-2" xlink:href="9DA5877EE7C17D8B.png"  transform="matrix(0.561 0 0 0.56 -269.61 -2)">
	</image>
</g>
<rect x="-212.4" y="-289.3" class="st5" width="1396.8" height="1266.1"/>
<g>
	<g>
		<path class="st1" d="M1520.6,376h-191.1c-28.1,0-50.8-22.8-50.8-50.8V125.8c0-28.1,22.8-50.8,50.8-50.8h191.1
			c28.1,0,50.8,22.8,50.8,50.8v199.4C1571.4,353.2,1548.7,376,1520.6,376z"/>
		<path d="M1428.6,70.9c21.1,0,42.1,0,63.2,0c7.6,0,15.2-0.1,22.9-0.3c6.9-0.2,13.6,1.1,20.2,2.2c13,2.3,23.7,9,31.9,19.1
			c6.1,7.5,9.2,16.5,10.8,26.1c1.4,8.7,1.9,17.4,1.8,26.2c-0.1,36.6,0,73.2,0,109.8c0,5.4,0,10.8,0,16.3c0.1,14.4,0,28.7,0.2,43.1
			c0.2,10.3-2.5,19.9-6,29.4c-3.1,8.3-7.8,15.7-15,20.9c-4.5,3.3-9.7,5.6-14.8,7.8c-7.9,3.4-16.1,5.1-24.9,5
			c-29.4-0.2-58.8,0-88.1,0c-2.8,0-4.4-1.9-4.4-5c0-8.3,0.1-16.6,0-24.9c-0.1-7.5-0.8-15-3-22.2c-0.4-1.4-1-2.8-1.6-4.2
			c-2.1-4.9-6.3-6.6-11.2-6.6c-13.8-0.1-27.7,0.1-41.5,0.2c-2.2,0-3.3,0.7-3.5,2.9c-1,7.9,0.7,15.1,7.1,20.4c3.1,2.6,7.1,3.6,11,4.4
			c6,1.2,12.1,2.1,18.2,3.1c0.3,0.1,0.7,0.1,1,0.1c1.3,0.4,2.6,0.7,2.8,2.4c0.2,1.6-1.1,2.1-2.3,2.7c-4.1,1.8-7,5-9.9,8.3
			c-4,4.5-7.1,9.6-9,15.4c-0.4,1.3-1,2.4-2.7,2.4c-1.5,0.1-3.1,0.6-4.6,0.6c-15.6,0-31.2,0.3-46.8-0.1c-7.8-0.2-15.7-0.9-23.4-2.3
			c-11.7-2.2-20.2-9.3-25.9-19.6c-5.8-10.5-8.8-21.7-8.8-33.8c0.1-13.4-0.2-26.8-0.2-40.2c0-30.4,0.1-60.8-0.1-91.3
			c-0.1-13.7-0.8-27.3-0.8-41c0-11.5,0.7-23.1,3.4-34.4c2.7-11.4,9-20.7,17.7-28.3c8.3-7.2,18.3-10.9,29.1-12.7
			c13.4-2.2,26.9-2,40.4-2C1384.1,71,1406.4,71,1428.6,70.9C1428.6,71,1428.6,71,1428.6,70.9z M1488.7,88.8
			C1488.7,88.8,1488.7,88.8,1488.7,88.8c-8.5-0.1-17-0.1-25.5-0.1c-4.4,0-7.4,1.8-8.5,5.3c-4.3,13.7-8.7,27.3-12.9,41
			c-1.9,6.3-3.5,12.6-5,19c-1,4,0.3,5.3,4.3,5.3c7.8,0,15.6-0.1,23.4,0.1c1.8,0,3.7,0.7,5.4,1.6c4.9,2.7,5.4,7.9,4.6,12.5
			c-1.3,7.2-4.9,13.3-9.5,18.8c-2.9,3.5-5.9,6.9-8.9,10.3c-0.9,1-1.4,2-0.8,3.3c1.5,3.7,3.6,7,7.3,8.8c0.8,0.4,1.7,0.8,2.4,1.4
			c0.5,0.4,1,1.1,1.1,1.8c0.4,1.4-0.5,2.4-1.5,3.3c-2.2,2.1-4.4,4.2-6.5,6.4c-4,4.3-4.1,9.4-0.7,14.1c1.3,1.9,2.3,4.1,3,6.3
			c2,6.8,0,13.2-2.8,19.4c-1.7,3.8-4,7.5-5.2,11.4c-2.6,8.4,0.5,13.7,8.9,16.3c5.5,1.7,11.2,2.2,16.9,2.2c9.2,0,18.5-0.3,27.7-0.4
			c5.6-0.1,11.3-0.3,16.7,2.1c2.1,0.9,3.9,2,4.7,4.2c0.8,2.3,1.7,4.7,2.1,7.1c1.5,8.3,1.9,16.6,1.9,25c0,5.1,0.1,10.3,0.3,15.4
			c0.1,2.2,1.3,3,3.2,2.2c2.5-1,5.2-1.9,7.3-3.4c3.5-2.5,6.7-5.5,10.1-8.3c3.9-7.8,7-16,7-24.9c0-5.7-0.3-11.4-0.3-17.1
			c-0.1-17.4-0.1-34.7-0.1-52.1c0-28.2,0.1-56.3,0.2-84.5c0-9.6,0.5-19.3,0.5-28.9c0-7.5-1.4-14.9-4-22c-4-10.9-11.2-18.3-22.7-20.7
			c-6.3-1.3-12.7-2.1-19.2-2.4C1505.3,88.5,1497,88.8,1488.7,88.8z M1429.3,299.4c-0.9-4.9-0.4-9.5,1.4-13.8
			c1.4-3.3,3.1-6.5,4.6-9.8c1.8-3.9,3.9-7.7,5.3-11.8c1.3-3.6,1.8-7.7-1.1-10.8c-2.4-2.6-5.3-5-8.2-7.1c-1.6-1.1-2.4-2.3-2-4.1
			c0.5-2.5,1-5,1.6-7.4c0.7-2.9,2.7-5.1,5.1-6.8c1.4-1,3-1.7,4.5-2.6c0.4-0.2,0.8-0.6,1-1.1c0.1-0.1-0.4-0.6-0.8-0.8
			c-5.1-2.6-8.5-6.9-11.3-11.8c-1.5-2.6-2.1-5.3-2.2-8.3c-0.1-2.5,0.5-3.1,2.8-3.8c2-0.6,4-1.3,6-2c7.7-2.8,12.7-8.4,16-15.7
			c0.7-1.5,0-2.9-1.6-3.4c-0.7-0.2-1.5-0.3-2.2-0.2c-4.4,0.2-8.8,0.4-13.1,0.5c-4,0-8.1,0-12.1-0.3c-5.5-0.4-8.1-2.6-8.6-7.4
			c-0.3-2.8-0.4-5.7,0.2-8.4c1.4-5.9,3.1-11.8,4.9-17.6c3.9-12.4,7.9-24.8,11.8-37.2c1.8-5.8,3.3-11.6,5-17.4c0.5-1.6-0.1-2-1.5-2
			c-0.4,0-0.8,0-1.2,0c-14.8,0-29.7-0.2-44.5,0c-18.5,0.2-37.1-1-55.5,1.1c-5.5,0.6-11.2,1.3-16.4,3c-8.2,2.7-14.5,8.5-19.6,15.4
			c-2.1,2.9-4.3,5.8-4.9,9.6c-1.3,7.5-1.9,15.1-1.9,22.7c0,23.4,0,46.7,0,70.1c0,29.5,0,59,0,88.5c0,0.7,0,1.4,0.2,2.1
			c0.3,1.1,1,1.1,1.8,0.4c0.3-0.3,0.5-0.8,0.7-1.2c1.3-2.2,2.7-4.4,5.2-5.4c3.5-1.4,7-2.2,10.8-1.5c1.1,0.2,1.7-0.2,1.7-1.3
			c0-0.7,0-1.4,0-2c0-2.6-0.4-5.3,0-7.9c1.4-8.5,6-14.4,14.5-16.7c2.7-0.7,5.6-0.5,8.4-0.6c1.8-0.1,2.7-0.9,2.6-2.6
			c0-0.6-0.1-1.1-0.2-1.7c-1.3-11.6,5.5-18.9,15.2-21c7.5-1.6,14.1,1.5,19.8,6.5c0.5,0.4,1.4,0.9,1.7,0.7c0.5-0.3,0.8-1.1,1-1.8
			c0.1-0.4,0-0.9,0-1.4c0-12.5,0-25.1-0.1-37.6c0-5.7,1.9-10.3,6.3-14c0.7-0.6,1.3-1.1,2-1.7c6.9-5.6,14.8-7.7,23.5-6
			c6.4,1.3,11.8,4.8,14.5,11.1c1.9,4.2,2.8,8.8,2.8,13.4c0.2,25.3,0.3,50.6,0.4,75.8c0,4.4,0,8.9,0,13.4
			C1425.6,298.4,1427.3,298.8,1429.3,299.4z M1478.8,356.5c0,0,0,0.1,0,0.1c7.6,0,15.1,0,22.7,0c1.7,0,3.4,0.1,5-0.1
			c2.4-0.3,3.6-2,3.3-4.4c-0.1-0.9-0.1-1.7-0.2-2.6c-0.2-8.1-0.5-16.1-0.6-24.2c0-5.1-3.3-8.1-7.5-8.6c-3.5-0.5-7.1-0.7-10.7-0.7
			c-12.5-0.1-24.9,0-37.4-0.1c-2.4,0-4.7-0.4-7.1-0.6c-0.5,0-1,0-1.5-0.1c0,0.6-0.1,1.3,0.1,1.8c2.2,4.2,2.4,8.9,2.7,13.5
			c0.5,7.5,0.6,15.1,0.7,22.6c0,1.6,0.6,2.4,1.9,2.9c0.9,0.3,1.8,0.5,2.7,0.5C1461.8,356.5,1470.3,356.5,1478.8,356.5z
			 M1406.9,252.9c-0.1,0-0.1,0-0.2,0c0-4.4,0-8.9,0-13.3c0-4.5,0.2-9,0.1-13.5c-0.1-6.2-0.3-12.3-0.7-18.5c-0.3-3.9-4.6-6.6-8.4-5.8
			c-4.8,1-7.2,4.1-7.2,9.4c0,25.3-0.1,50.6,0,75.8c0,2-0.7,3.2-2.3,4.2c-1.7,1.1-2.4,0.9-3.5-0.8c-1.8-2.9-3.6-5.8-5.4-8.6
			c-4.1-6.5-8.2-13.1-12.3-19.6c-1.2-1.8-2.4-3.7-4-5.2c-2.5-2.4-7.4-2.8-10.4-1.1c-3.7,2.2-4.9,4.7-3.9,9c0.3,1.2,0.7,2.4,1.3,3.5
			c2.1,3.9,4.3,7.9,6.6,11.7c2.8,4.5,5.9,8.8,8.8,13.3c1.2,1.8,2.6,3,4.9,2.6c1.3-0.2,2.6-0.1,4-0.1c10.1,0,20.2-0.1,30.3,0
			c1.7,0,2.4-0.6,2.4-2.2c0-1.5-0.1-3-0.1-4.5C1406.9,277.3,1406.9,265.1,1406.9,252.9z M1332.4,280.7c-5.4-0.2-9.3,3.3-9,8.8
			c0.1,2.3,0.8,4.9,1.9,6.9c3.9,7.1,8,14,12.2,20.9c1.3,2.2,3.1,4.2,4.7,6.2c0.3,0.3,1,0.6,1.4,0.5c0.4-0.2,0.7-0.8,0.9-1.3
			c0.1-0.3,0-0.7,0-1c-0.1-5.6-0.3-11.3-0.3-16.9c0-2.5,0.5-5,2.8-6.6c0.8-0.6,0.7-1.2,0.3-2.1c-2.3-5-6.1-8.9-9.7-13
			C1336.2,281.4,1334.5,280.8,1332.4,280.7z M1321,344c7.7,0.5,9.5-4.9,7.3-10.1c-0.7-1.5-1.2-3.1-2.1-4.5c-3-4.8-6.1-9.6-9.1-14.4
			c-1.7-2.6-4.3-3.8-7.1-4.5c-2.1-0.5-3.9,0.1-5.5,1.6c-2.5,2.3-2.4,5.1-1.7,8c1.9,7.5,5.6,13.9,10.4,19.9
			C1315.4,342.8,1317.9,344.3,1321,344z M1334.4,357.1c0.1,0.2,0.1,0.3,0.2,0.5c11.1,0,22.2,0,33.3,0c0-0.2,0.1-0.3,0.1-0.5
			c-0.4-0.2-0.8-0.5-1.2-0.6c-5.6-1.4-10-4.6-13.6-8.9c-1.4-1.7-2.6-3-5.1-2.6c-1.3,0.2-2.7-0.6-4-1c-0.7-0.2-1.3-0.6-2.1-1
			C1342.7,349.4,1339.9,354,1334.4,357.1z"/>
	</g>
	<text transform="matrix(1 0 0 1 1295.0564 477.9102)"><tspan x="0" y="0" style="font-family:'LegHug'; font-size:115.4546px;">C</tspan><tspan x="39.5" y="0" style="font-family:'LegHug'; font-size:115.4546px; letter-spacing:1;">o</tspan><tspan x="80.7" y="0" style="font-family:'LegHug'; font-size:115.4546px; letter-spacing:1;">v</tspan><tspan x="122.1" y="0" style="font-family:'LegHug'; font-size:115.4546px;">er</tspan><tspan x="189.7" y="0" style="font-family:'LegHug'; font-size:115.4546px;"> </tspan><tspan x="201.2" y="0" style="font-family:'LegHug'; font-size:115.4546px;">Up</tspan></text>
</g>
<g>
	<g id="CiwCzP.tif">
		
			<image style="overflow:visible;" width="153" height="158" id="Layer_0_1_" xlink:href="9DA5877EE7C17D94.png"  transform="matrix(2.5966 0 0 2.5966 291.7506 217.8489)">
		</image>
	</g>
	<rect x="228.6" y="214.8" class="st5" width="92.9" height="82.6"/>
	<g id="uyCjlM.tif">
		
			<image style="overflow:visible;" width="316" height="181" id="Layer_0_2_" xlink:href="9DA5877EE7C17D97.png"  transform="matrix(1.4592 0.1592 -0.1592 1.4592 283.847 93.5336)">
		</image>
	</g>
</g>
</svg>
